<svg width="429" height="69.38990492123791" viewBox="0 0 59.5483870967742 59.77372364671791" class="looka-1j8o68f"><defs id="SvgjsDefs2155"></defs><g id="SvgjsG2156" featurekey="odWo6G-0" transform="matrix(0.9339644319799674,0,0,0.9339644319799674,-1.6605887573882883,0)" fill="#111111"><path xmlns="http://www.w3.org/2000/svg" d="M60.767,29.285C60.767,13.137,47.536,0,31.273,0C15.01,0,1.778,13.137,1.778,29.285S15.01,58.569,31.273,58.569  c6.533,0,12.574-2.123,17.467-5.706L59.321,64l2.9-2.756L51.805,50.279C57.327,44.955,60.767,37.513,60.767,29.285z M5.778,29.285  C5.778,15.343,17.216,4,31.273,4s25.494,11.343,25.494,25.284S45.331,54.569,31.273,54.569S5.778,43.226,5.778,29.285z"></path><path xmlns="http://www.w3.org/2000/svg" d="M31.273,7.705c-11.982,0-21.73,9.681-21.73,21.579c0,11.899,9.748,21.58,21.73,21.58s21.73-9.681,21.73-21.58  C53.004,17.386,43.256,7.705,31.273,7.705z M31.273,46.865c-9.776,0-17.73-7.887-17.73-17.58s7.954-17.579,17.73-17.579  s17.73,7.886,17.73,17.579S41.05,46.865,31.273,46.865z"></path><ellipse xmlns="http://www.w3.org/2000/svg" cx="21.342" cy="29.452" rx="3.628" ry="3.612"></ellipse><ellipse xmlns="http://www.w3.org/2000/svg" cx="31.999" cy="29.452" rx="3.628" ry="3.612"></ellipse><ellipse xmlns="http://www.w3.org/2000/svg" cx="42.658" cy="29.452" rx="3.628" ry="3.612"></ellipse></g><g id="SvgjsG2157" featurekey="VGK2BT-0" transform="matrix(1.515635972071737,0,0,1.515635972071737,74.18123658056487,10.967450014657924)" fill="#111111"></g></svg>